<svg width="1440" height="595" viewBox="0 0 1440 595" fill="none" xmlns="http://www.w3.org/2000/svg">
<path d="M-43.936 321.346C-167.192 200.652 -207.511 -2.64166 -175.68 -199.581C-142.825 -395.787 -38.964 -587.982 125.324 -686.579C289.552 -785.981 511.306 -793.838 743.584 -806.025C975.861 -818.213 1218.08 -831.615 1352.62 -729.219C1487.15 -626.824 1514.3 -406.711 1551.99 -190.768C1587.86 26.9253 1633.36 239.06 1543.8 376.984C1452.16 515.222 1225.47 579.251 1027.71 592.141C830.685 604.007 662.636 563.115 475.435 523.628C288.277 482.519 80.3445 442.773 -43.936 321.346Z" fill="url(#paint0_linear_118_733)"/>
<defs>
<linearGradient id="paint0_linear_118_733" x1="976.008" y1="-89.6002" x2="-2445.56" y2="-1087.31" gradientUnits="userSpaceOnUse">
<stop stop-color="#3478C5"/>
<stop offset="1" stop-color="#032F61"/>
</linearGradient>
</defs>
</svg>
