<svg width="29" height="28" viewBox="0 0 29 28" fill="none" xmlns="http://www.w3.org/2000/svg">
<path fill-rule="evenodd" clip-rule="evenodd" d="M14.2713 0C6.38638 0 0 6.38638 0 14.2712C0 20.5863 4.08515 25.9202 9.75797 27.8111C10.4715 27.936 10.7391 27.5078 10.7391 27.1332C10.7391 26.7943 10.7213 25.6704 10.7213 24.4752C7.13563 25.1352 6.20799 23.6011 5.92257 22.7983C5.76202 22.388 5.06629 21.1215 4.45977 20.7825C3.96027 20.5149 3.24671 19.8549 4.44193 19.837C5.56579 19.8192 6.36855 20.8717 6.63613 21.2998C7.92054 23.4584 9.97204 22.8518 10.7926 22.4772C10.9175 21.5496 11.2921 20.9252 11.7024 20.5684C8.52707 20.2117 5.20901 18.9808 5.20901 13.522C5.20901 11.97 5.76202 10.6856 6.67181 9.68661C6.5291 9.32983 6.0296 7.86703 6.81452 5.90473C6.81452 5.90473 8.00974 5.53011 10.7391 7.36753C11.8808 7.04643 13.0939 6.88588 14.3069 6.88588C15.52 6.88588 16.733 7.04643 17.8747 7.36753C20.6041 5.51227 21.7993 5.90473 21.7993 5.90473C22.5843 7.86703 22.0848 9.32983 21.9421 9.68661C22.8518 10.6856 23.4049 11.9522 23.4049 13.522C23.4049 18.9986 20.0689 20.2117 16.8936 20.5684C17.4109 21.0144 17.8569 21.8707 17.8569 23.2086C17.8569 25.1174 17.8391 26.6516 17.8391 27.1332C17.8391 27.5078 18.1066 27.9538 18.8202 27.8111C21.6533 26.8546 24.1151 25.0338 25.8591 22.6049C27.6032 20.176 28.5416 17.2614 28.5425 14.2712C28.5425 6.38638 22.1561 0 14.2713 0Z" fill="black"/>
</svg>
