<?xml version="1.0" encoding="utf-8"?>
<!-- Generator: Adobe Illustrator 26.0.2, SVG Export Plug-In . SVG Version: 6.00 Build 0)  -->
<svg version="1.1" id="Layer_1" xmlns="http://www.w3.org/2000/svg" xmlns:xlink="http://www.w3.org/1999/xlink" x="0px" y="0px"
	 viewBox="0 0 1440 783.4" style="enable-background:new 0 0 1440 783.4;" xml:space="preserve">
<style type="text/css">
	.st0{fill:#C0DDFE;}
	.st1{fill:url(#SVGID_1_);}
</style>
<path class="st0" d="M1458.2,566.1c-3.1-0.8-5.7-1.5-8.8-2.3c9.4-80.6-41.7-158-122.1-178.7c-20.1-5.2-40.5-6.4-60.5-4.2
	c14.8-75.9-32-151.5-108-171.1c-13.8-3.6-28.1-5.2-41.7-4.7c-22-86-89.3-157.6-181-181.2C801.8-10.7,664.5,69.8,629.3,204.1
	c-35.1-61.3-94.4-109.3-168.5-128.4C318.9,39.1,173.9,121,131.4,260c-16-10.8-33.4-18.6-52.8-23.6
	c-92.3-23.8-186.9,31.6-210.8,124.5C-156,453.2-100.7,547.8-7.7,571.8c37.7,9.7,76.1,6.2,109.8-7.9c9.9,42.1,41.8,77,87,88.7
	c37.7,9.7,75.7,0.1,104.1-22.1c14.6,55.3,57.6,101.2,117.3,116.6c38.3,9.9,77,5.1,109.9-10.6c33,51.3,84.5,90.7,147.9,107
	c92.9,23.9,186.7-7.5,247.3-73.6c29.1,45.7,75.1,80.3,131.6,94.8c85.4,22,172.3-8.6,226-71.7c20.3,40.7,56.9,72.9,104.6,85.2
	c86,22.1,174.3-29.5,196.6-116.1C1595.8,676.5,1544.2,588.2,1458.2,566.1z"/>
<linearGradient id="SVGID_1_" gradientUnits="userSpaceOnUse" x1="732.9489" y1="396.0605" x2="585.607" y2="-332.8975" gradientTransform="matrix(1 0 0 -1 0 570.7852)">
	<stop  offset="1.000000e-04" style="stop-color:#3478C3"/>
	<stop  offset="1" style="stop-color:#032F61"/>
</linearGradient>
<path class="st1" d="M1362.2,692c7.3-58.7-34.7-111.9-93.4-119.3c-13.8-1.8-27.2-0.7-39.7,2.7c12-19.5,19.9-41.7,22.8-65.7
	c10.8-90.8-53.7-173.5-144.4-184.7c-8.4-1.2-16.6-1.4-24.8-1.2c0.1-0.4,0.2-1.3,0.3-1.8c15-124.1-73.2-236.9-197.3-251.9
	c-88.5-10.8-170.9,31-216.8,100.8c-18.3-9-38.8-15.8-60.7-18.2c-89.4-11-171.6,44-198.1,126.7c-20.8-12.3-44.2-20.9-69.5-24
	c-63.2-7.7-123,18.9-159.8,65.4c-5.1-1.9-10.7-3.5-16.5-4.1c-30.3-3.6-58.7,11.3-73.9,35.7c-8.5-3-17.6-5.3-26.9-6.6
	c-68.1-8.2-130.3,40.2-138.6,108.7c-8.2,68.1,3.2,158.5,71.7,166.9c21.3,2.8-45.9,112.4-27.1,104.7c8.4,8.5,14.7,106.9,27.1,108.4
	c13.3,1.7,56.5-1.7,67-8.8c27.1,45.4,60.8,23.2,117.3,30c34.2,4.4,116.3-8.4,145.4-21.9c21.1,22.8,56.1-26.1,89.4-21.8
	c32.9,4.1,58.3,60.6,83.9,43.7c24.7,23,62.8-25.7,99.3-21.3c42.7,5.1,77,58.3,109.6,35.5c27,34.4,73.1-5.9,119.8,0
	c22.3,2.5,37.3,65.6,57.5,60c26.1,27.4,125.7-125.2,166.6-120.4c52.5,6.6,239.6,171.6,274.9,137.5c15.1,11.6-118.2-140-98.2-137.5
	C1287.5,816.5,1354.9,750.6,1362.2,692z"/>
</svg>
